o 
v -2.2955079078674316 6.346049785614014 2.295542001724243
v -2.2955079078674316 6.346049785614014 0.11576200276613235
v -0.1350180059671402 6.346049785614014 0.11576200276613235
v -0.1350180059671402 6.346049785614014 2.295542001724243
v 2.0254719257354736 6.346049785614014 0.11576200276613235
v 2.0254719257354736 6.346049785614014 2.295542001724243
v -2.2955079078674316 6.346049785614014 -2.0640180110931396
v -0.1350180059671402 6.346049785614014 -2.0640180110931396
v 2.0254719257354736 6.346049785614014 -2.0640180110931396
v -2.2955079078674316 7.079074859619141 2.295542001724243
v -0.1350180059671402 7.079074859619141 2.295542001724243
v -0.1350180059671402 7.079074859619141 0.11576200276613235
v -2.2955079078674316 7.079074859619141 0.11576200276613235
v 2.0254719257354736 7.079074859619141 2.295542001724243
v 2.0254719257354736 7.079074859619141 0.11576200276613235
v -0.1350180059671402 7.079073905944824 -2.0640180110931396
v -2.2955079078674316 7.079073905944824 -2.0640180110931396
v 2.0254719257354736 7.079073905944824 -2.0640180110931396
v -2.2955079078674316 6.346049785614014 2.295542001724243
v -0.1350180059671402 6.346049785614014 2.295542001724243
v -0.1350180059671402 7.079074859619141 2.295542001724243
v -2.2955079078674316 7.079074859619141 2.295542001724243
v 2.0254719257354736 6.346049785614014 2.295542001724243
v 2.0254719257354736 7.079074859619141 2.295542001724243
v 2.0254719257354736 6.346049785614014 2.295542001724243
v 2.0254719257354736 6.346049785614014 0.11576200276613235
v 2.0254719257354736 7.079074859619141 0.11576200276613235
v 2.0254719257354736 7.079074859619141 2.295542001724243
v 2.0254719257354736 6.346049785614014 -2.0640180110931396
v 2.0254719257354736 7.079073905944824 -2.0640180110931396
v 2.0254719257354736 6.346049785614014 -2.0640180110931396
v -0.1350180059671402 6.346049785614014 -2.0640180110931396
v -0.1350180059671402 7.079073905944824 -2.0640180110931396
v 2.0254719257354736 7.079073905944824 -2.0640180110931396
v -2.2955079078674316 6.346049785614014 -2.0640180110931396
v -2.2955079078674316 7.079073905944824 -2.0640180110931396
v -2.2955079078674316 6.346049785614014 -2.0640180110931396
v -2.2955079078674316 6.346049785614014 0.11576200276613235
v -2.2955079078674316 7.079074859619141 0.11576200276613235
v -2.2955079078674316 7.079073905944824 -2.0640180110931396
v -2.2955079078674316 6.346049785614014 2.295542001724243
v -2.2955079078674316 7.079074859619141 2.295542001724243
v 3.0233819484710693 0 -3.003377914428711
v 3.0233819484710693 0 2.996622085571289
v -2.9766180515289307 0 2.996622085571289
v -2.9766180515289307 0 -3.003377914428711
v 3.0233819484710693 0 2.996622085571289
v 3.0233819484710693 10 2.996622085571289
v -2.9766180515289307 10 2.996622085571289
v -2.9766180515289307 0 2.996622085571289
v 3.0233819484710693 0 -3.003377914428711
v 3.0233819484710693 10 -3.003377914428711
v 3.0233819484710693 10 2.996622085571289
v 3.0233819484710693 0 2.996622085571289
v -2.9766180515289307 0 -3.003377914428711
v -2.9766180515289307 10 -3.003377914428711
v 3.0233819484710693 10 -3.003377914428711
v 3.0233819484710693 0 -3.003377914428711
v -2.9766180515289307 0 2.996622085571289
v -2.9766180515289307 10 2.996622085571289
v -2.9766180515289307 10 -3.003377914428711
v -2.9766180515289307 0 -3.003377914428711
v -0.6855549812316895 4.341919898986816 1.1347620487213135
v -0.6855549812316895 10 1.1347620487213135
v -0.3641679883003235 10 1.267881989479065
v -0.3641679883003235 4.341919898986816 1.267881989479065
v -0.9615370035171509 4.341919898986816 0.922989010810852
v -0.9615370035171509 10 0.922989010810852
v -1.17330801486969 4.341919898986816 0.6470080018043518
v -1.17330801486969 10 0.6470080018043518
v -1.3064279556274414 4.341919898986816 0.32562100887298584
v -1.3064279556274414 10 0.32562100887298584
v -1.3518279790878296 4.341919898986816 -0.019269000738859177
v -1.3518279790878296 10 -0.019269999116659164
v -1.3064279556274414 4.341919898986816 -0.3641600012779236
v -1.3064279556274414 10 -0.3641600012779236
v -1.17330801486969 4.341919898986816 -0.6855469942092896
v -1.17330801486969 10 -0.6855469942092896
v -0.9615359902381897 4.341919898986816 -0.9615280032157898
v -0.9615359902381897 10 -0.9615280032157898
v -0.6855549812316895 4.341919898986816 -1.1732980012893677
v -0.6855549812316895 10 -1.1732980012893677
v -0.3641679883003235 4.341919898986816 -1.3064179420471191
v -0.3641679883003235 10 -1.3064179420471191
v -0.019277000799775124 4.341919898986816 -1.3518279790878296
v -0.019277000799775124 10 -1.3518279790878296
v -0.019277000799775124 4.341919898986816 -1.3518279790878296
v 0.32561299204826355 4.341919898986816 -1.3064179420471191
v 0.32561299204826355 10 -1.3064179420471191
v -0.019277000799775124 10 -1.3518279790878296
v 0.6470000147819519 4.341919898986816 -1.1732980012893677
v 0.6470000147819519 10 -1.1732980012893677
v 0.9229819774627686 4.341919898986816 -0.9615280032157898
v 0.9229819774627686 10 -0.9615280032157898
v 1.1347520351409912 4.341919898986816 -0.6855459809303284
v 1.1347520351409912 10 -0.6855469942092896
v 1.2678719758987427 4.341919898986816 -0.3641589879989624
v 1.2678719758987427 10 -0.3641600012779236
v 1.3132820129394531 4.341919898986816 -0.019269000738859177
v 1.3132820129394531 10 -0.019269000738859177
v 1.2678719758987427 4.341919898986816 0.3256230056285858
v 1.2678719758987427 10 0.32562199234962463
v 1.1347520351409912 4.341919898986816 0.647009015083313
v 1.1347520351409912 10 0.647009015083313
v 0.9229819774627686 4.341919898986816 0.9229900240898132
v 0.9229819774627686 10 0.9229900240898132
v 0.6470000147819519 4.341919898986816 1.1347620487213135
v 0.6470000147819519 10 1.1347620487213135
v 0.32561299204826355 4.341919898986816 1.267881989479065
v 0.32561299204826355 10 1.267881989479065
v -0.01927799917757511 4.341919898986816 1.3132820129394531
v -0.01927799917757511 10 1.3132820129394531
v 0.6470000147819519 10 1.1347620487213135
v 0.32561299204826355 10 1.267881989479065
v 3.0233819484710693 10 2.996622085571289
v 0.9229819774627686 10 0.9229900240898132
v 1.1347520351409912 10 0.647009015083313
v 1.2678719758987427 10 0.32562199234962463
v 1.3132820129394531 10 -0.019269000738859177
v 1.2678719758987427 10 -0.3641600012779236
v 1.1347520351409912 10 -0.6855469942092896
v 3.0233819484710693 10 -3.003377914428711
v 0.9229819774627686 10 -0.9615280032157898
v 0.6470000147819519 10 -1.1732980012893677
v 0.32561299204826355 10 -1.3064179420471191
v -0.019277000799775124 10 -1.3518279790878296
v -0.3641679883003235 10 -1.3064179420471191
v -0.6855549812316895 10 -1.1732980012893677
v -2.9766180515289307 10 -3.003377914428711
v -0.01927799917757511 10 1.3132820129394531
v -0.3641679883003235 10 1.267881989479065
v -0.6855549812316895 10 1.1347620487213135
v -2.9766180515289307 10 2.996622085571289
v -0.9615370035171509 10 0.922989010810852
v -1.17330801486969 10 0.6470080018043518
v -1.3064279556274414 10 0.32562100887298584
v -1.3518279790878296 10 -0.019269999116659164
v -1.3064279556274414 10 -0.3641600012779236
v -1.17330801486969 10 -0.6855469942092896
v -0.9615359902381897 10 -0.9615280032157898
v -1.3064279556274414 4.341919898986816 -0.3641600012779236
v -1.3518279790878296 4.341919898986816 -0.019269000738859177
v -1.3064279556274414 4.341919898986816 0.32562100887298584
v -1.17330801486969 4.341919898986816 -0.6855469942092896
v -0.9615359902381897 4.341919898986816 -0.9615280032157898
v -0.6855549812316895 4.341919898986816 -1.1732980012893677
v -0.3641679883003235 4.341919898986816 -1.3064179420471191
v -0.019277000799775124 4.341919898986816 -1.3518279790878296
v 0.32561299204826355 4.341919898986816 -1.3064179420471191
v -1.17330801486969 4.341919898986816 0.6470080018043518
v -0.9615370035171509 4.341919898986816 0.922989010810852
v -0.6855549812316895 4.341919898986816 1.1347620487213135
v 0.6470000147819519 4.341919898986816 -1.1732980012893677
v 0.9229819774627686 4.341919898986816 -0.9615280032157898
v 1.1347520351409912 4.341919898986816 -0.6855459809303284
v 1.2678719758987427 4.341919898986816 -0.3641589879989624
v 1.3132820129394531 4.341919898986816 -0.019269000738859177
v 1.2678719758987427 4.341919898986816 0.3256230056285858
v 1.1347520351409912 4.341919898986816 0.647009015083313
v 0.9229819774627686 4.341919898986816 0.9229900240898132
v 0.6470000147819519 4.341919898986816 1.1347620487213135
v 0.32561299204826355 4.341919898986816 1.267881989479065
v -0.3641679883003235 4.341919898986816 1.267881989479065
v -0.01927799917757511 4.341919898986816 1.3132820129394531
vt 1 0
vt 1 0.5
vt 0.5 0.5
vt 0.5 0
vt 0 0.5
vt 0 0
vt 1 1
vt 0.5 1
vt 0 1
vt 0 0
vt 0.5 0
vt 0.5 0.5
vt 0 0.5
vt 1 0
vt 1 0.5
vt 0.5 1
vt 0 1
vt 1 1
vt 0 0
vt 0.5 0
vt 0.5 1
vt 0 1
vt 1 0
vt 1 1
vt 0 0
vt 0.5 0
vt 0.5 1
vt 0 1
vt 1 0
vt 1 1
vt 0 0
vt 0.5 0
vt 0.5 1
vt 0 1
vt 1 0
vt 1 1
vt 0 0
vt 0.5 0
vt 0.5 1
vt 0 1
vt 1 0
vt 1 1
vt 0 1
vt 0 0
vt 1 0
vt 1 1
vt 1 0
vt 1 1
vt 0 1
vt 0 0
vt 1 0
vt 1 1
vt 0 1
vt 0 0
vt 1 0
vt 1 1
vt 0 1
vt 0 0
vt 1 0
vt 1 1
vt 0 1
vt 0 0
vt 0.41666701436042786 0
vt 0.41666701436042786 0.5834609866142273
vt 0.45833298563957214 0.5834609866142273
vt 0.45833298563957214 0
vt 0.375 0
vt 0.375 0.5834609866142273
vt 0.33333298563957214 0
vt 0.33333298563957214 0.5834609866142273
vt 0.29166701436042786 0
vt 0.29166701436042786 0.5834609866142273
vt 0.25 0
vt 0.25 0.5834609866142273
vt 0.20833300054073334 0
vt 0.20833300054073334 0.5834609866142273
vt 0.16666699945926666 0
vt 0.16666699945926666 0.5834609866142273
vt 0.125 0
vt 0.125 0.5834609866142273
vt 0.08333329856395721 0
vt 0.08333329856395721 0.5834609866142273
vt 0.041666701436042786 0
vt 0.041666701436042786 0.5834609866142273
vt 0 0
vt 0 0.5834609866142273
vt 1 0
vt 0.9583330154418945 0
vt 0.9583330154418945 0.5834609866142273
vt 1 0.5834609866142273
vt 0.9166669845581055 0
vt 0.9166669845581055 0.5834609866142273
vt 0.875 0
vt 0.875 0.5834609866142273
vt 0.8333330154418945 0
vt 0.8333330154418945 0.5834609866142273
vt 0.7916669845581055 0
vt 0.7916669845581055 0.5834609866142273
vt 0.75 0
vt 0.75 0.5834609866142273
vt 0.7083330154418945 0
vt 0.7083330154418945 0.5834609866142273
vt 0.6666669845581055 0
vt 0.6666669845581055 0.5834609866142273
vt 0.625 0
vt 0.625 0.5834609866142273
vt 0.5833330154418945 0
vt 0.5833330154418945 0.5834609866142273
vt 0.5416669845581055 0
vt 0.5416669845581055 0.5834609866142273
vt 0.5 0
vt 0.5 0.5834609866142273
vt 0.6039369702339172 0.3103109896183014
vt 0.5503720045089722 0.2881239950656891
vt 1 0
vt 0.6499329805374146 0.3456059992313385
vt 0.6852279901504517 0.3916029930114746
vt 0.707414984703064 0.44516700506210327
vt 0.7149829864501953 0.5026490092277527
vt 0.707414984703064 0.5601310133934021
vt 0.6852279901504517 0.6136959791183472
vt 1 1
vt 0.6499339938163757 0.6596919894218445
vt 0.6039369702339172 0.6949869990348816
vt 0.5503720045089722 0.7171739935874939
vt 0.49289000034332275 0.7247419953346252
vt 0.4354090094566345 0.7171739935874939
vt 0.38184401392936707 0.6949869990348816
vt 0 1
vt 0.49289000034332275 0.2805570065975189
vt 0.4354090094566345 0.2881239950656891
vt 0.38184401392936707 0.3103120028972626
vt 0 0
vt 0.33584699034690857 0.3456059992313385
vt 0.30055299401283264 0.3916029930114746
vt 0.27836498618125916 0.44516798853874207
vt 0.270797997713089 0.5026490092277527
vt 0.27836599946022034 0.5601310133934021
vt 0.30055299401283264 0.6136959791183472
vt 0.33584699034690857 0.6596919894218445
vt 0.33352699875831604 0
vt 0.32841500639915466 0
vt 0.3349969983100891 0
vt 0.34998300671577454 0
vt 0.3766629993915558 0
vt 0.4117479920387268 0
vt 0.45284798741340637 0
vt 0.49716100096702576 0
vt 0.5416669845581055 0
vt 0.3528229892253876 0
vt 0.38067901134490967 0
vt 0.41666701436042786 0
vt 0.5833330154418945 0
vt 0.6193209886550903 0
vt 0.64717698097229 0
vt 0.6650030016899109 0
vt 0.6715850234031677 0
vt 0.6664729714393616 0
vt 0.6500170230865479 0
vt 0.6233360171318054 0
vt 0.588250994682312 0
vt 0.5471519827842712 0
vt 0.45833298563957214 0
vt 0.5028390288352966 0
vn 0 -1 0
vn 0 -1 0
vn 0 -1 0
vn 0 -1 0
vn 0 -1 0
vn 0 -1 0
vn 0 -1 0
vn 0 -1 0
vn 0 -1 0
vn 0 1 0
vn 0 1 0
vn 0 1 0
vn 0 1 0
vn 0 1 0
vn 0 1 0
vn 0 1 0
vn 0 1 0
vn 0 1 0
vn 0 0 1
vn 0 0 1
vn 0 0 1
vn 0 0 1
vn 0 0 1
vn 0 0 1
vn 1 0 0
vn 1 0 0
vn 1 0 0
vn 1 0 0
vn 1 0 0
vn 1 0 0
vn 0 0 -1
vn 0 0 -1
vn 0 0 -1
vn 0 0 -1
vn 0 0 -1
vn 0 0 -1
vn -1 0 0
vn -1 0 0
vn -1 0 0
vn -1 0 0
vn -1 0 0
vn -1 0 0
vn 0 -1 0
vn 0 -1 0
vn 0 -1 0
vn 0 -1 0
vn 0 0 1
vn 0 0 1
vn 0 0 1
vn 0 0 1
vn 1 0 0
vn 1 0 0
vn 1 0 0
vn 1 0 0
vn 0 0 -1
vn 0 0 -1
vn 0 0 -1
vn 0 0 -1
vn -1 0 0
vn -1 0 0
vn -1 0 0
vn -1 0 0
vn 0.5000001666505924 0 -0.8660253075686527
vn 0.5000001666505924 0 -0.8660253075686527
vn 0.25881894880749623 0 -0.9659258520912372
vn 0.25881894880749623 0 -0.9659258520912372
vn 0.7071072878258339 0 -0.7071062745468981
vn 0.7071072878258339 0 -0.7071062745468981
vn 0.866025987672217 0 -0.49999898867533826
vn 0.866025987672217 0 -0.49999898867533826
vn 0.9659258520912372 0 -0.25881894880749623
vn 0.9659258520912372 0 -0.25881894880749623
vn 1 0 0
vn 1 0 0
vn 0.9659258520912372 0 0.25881894880749623
vn 0.9659258520912372 0 0.25881894880749623
vn 0.8660253075686527 0 0.5000001666505924
vn 0.8660253075686527 0 0.5000001666505924
vn 0.7071067811865476 0 0.7071067811865476
vn 0.7071067811865476 0 0.7071067811865476
vn 0.5000001666505924 0 0.8660253075686527
vn 0.5000001666505924 0 0.8660253075686527
vn 0.25881894880749623 0 0.9659258520912372
vn 0.25881894880749623 0 0.9659258520912372
vn 0 0 1
vn 0 0 1
vn 0 0 1
vn -0.25881894880749623 0 0.9659258520912372
vn -0.25881894880749623 0 0.9659258520912372
vn 0 0 1
vn -0.5000001666505924 0 0.8660253075686527
vn -0.5000001666505924 0 0.8660253075686527
vn -0.7071067811865476 0 0.7071067811865476
vn -0.7071067811865476 0 0.7071067811865476
vn -0.8660253075686527 0 0.5000001666505924
vn -0.8660253075686527 0 0.5000001666505924
vn -0.9659258520912372 0 0.25881894880749623
vn -0.9659258520912372 0 0.25881894880749623
vn -1 0 0
vn -1 0 0
vn -0.9659258520912372 0 -0.25881894880749623
vn -0.9659258520912372 0 -0.25881894880749623
vn -0.866024852834463 0 -0.5000009542721362
vn -0.866024852834463 0 -0.5000009542721362
vn -0.7071062745468981 0 -0.7071072878258339
vn -0.7071062745468981 0 -0.7071072878258339
vn -0.49999898867533826 0 -0.866025987672217
vn -0.49999898867533826 0 -0.866025987672217
vn -0.25881894880749623 0 -0.9659258520912372
vn -0.25881894880749623 0 -0.9659258520912372
vn 0 0 -1
vn 0 0 -1
vn 0 1 0
vn 0 1 0
vn 0 1 0
vn 0 1 0
vn 0 1 0
vn 0 1 0
vn 0 1 0
vn 0 1 0
vn 0 1 0
vn 0 1 0
vn 0 1 0
vn 0 1 0
vn 0 1 0
vn 0 1 0
vn 0 1 0
vn 0 1 0
vn 0 1 0
vn 0 1 0
vn 0 1 0
vn 0 1 0
vn 0 1 0
vn 0 1 0
vn 0 1 0
vn 0 1 0
vn 0 1 0
vn 0 1 0
vn 0 1 0
vn 0 1 0
vn 0 1 0
vn 0 1 0
vn 0 1 0
vn 0 1 0
vn 0 1 0
vn 0 1 0
vn 0 1 0
vn 0 1 0
vn 0 1 0
vn 0 1 0
vn 0 1 0
vn 0 1 0
vn 0 1 0
vn 0 1 0
vn 0 1 0
vn 0 1 0
vn 0 1 0
vn 0 1 0
vn 0 1 0
vn 0 1 0
vn 0 1 0
vn 0 1 0
vn 0 1 0
vn 0 1 0
f 1/1/1 2/2/2 3/3/3
f 3/3/3 4/4/4 1/1/1
f 4/4/4 3/3/3 5/5/5
f 5/5/5 6/6/6 4/4/4
f 2/2/2 7/7/7 8/8/8
f 8/8/8 3/3/3 2/2/2
f 3/3/3 8/8/8 9/9/9
f 9/9/9 5/5/5 3/3/3
f 10/10/10 11/11/11 12/12/12
f 12/12/12 13/13/13 10/10/10
f 11/11/11 14/14/14 15/15/15
f 15/15/15 12/12/12 11/11/11
f 13/13/13 12/12/12 16/16/16
f 16/16/16 17/17/17 13/13/13
f 12/12/12 15/15/15 18/18/18
f 18/18/18 16/16/16 12/12/12
f 19/19/19 20/20/20 21/21/21
f 21/21/21 22/22/22 19/19/19
f 20/20/20 23/23/23 24/24/24
f 24/24/24 21/21/21 20/20/20
f 25/25/25 26/26/26 27/27/27
f 27/27/27 28/28/28 25/25/25
f 26/26/26 29/29/29 30/30/30
f 30/30/30 27/27/27 26/26/26
f 31/31/31 32/32/32 33/33/33
f 33/33/33 34/34/34 31/31/31
f 32/32/32 35/35/35 36/36/36
f 36/36/36 33/33/33 32/32/32
f 37/37/37 38/38/38 39/39/39
f 39/39/39 40/40/40 37/37/37
f 38/38/38 41/41/41 42/42/42
f 42/42/42 39/39/39 38/38/38
f 43/43/43 44/44/44 45/45/45
f 45/45/45 46/46/46 43/43/43
f 47/47/47 48/48/48 49/49/49
f 49/49/49 50/50/50 47/47/47
f 51/51/51 52/52/52 53/53/53
f 53/53/53 54/54/54 51/51/51
f 55/55/55 56/56/56 57/57/57
f 57/57/57 58/58/58 55/55/55
f 59/59/59 60/60/60 61/61/61
f 61/61/61 62/62/62 59/59/59
f 63/63/63 64/64/64 65/65/65
f 65/65/65 66/66/66 63/63/63
f 67/67/67 68/68/68 64/64/64
f 64/64/64 63/63/63 67/67/67
f 69/69/69 70/70/70 68/68/68
f 68/68/68 67/67/67 69/69/69
f 69/69/69 71/71/71 72/72/72
f 72/72/72 70/70/70 69/69/69
f 73/73/73 74/74/74 72/72/72
f 72/72/72 71/71/71 73/73/73
f 73/73/73 75/75/75 76/76/76
f 76/76/76 74/74/74 73/73/73
f 75/75/75 77/77/77 78/78/78
f 78/78/78 76/76/76 75/75/75
f 77/77/77 79/79/79 80/80/80
f 80/80/80 78/78/78 77/77/77
f 81/81/81 82/82/82 80/80/80
f 80/80/80 79/79/79 81/81/81
f 83/83/83 84/84/84 82/82/82
f 82/82/82 81/81/81 83/83/83
f 83/83/83 85/85/85 86/86/86
f 86/86/86 84/84/84 83/83/83
f 87/87/87 88/88/88 89/89/89
f 89/89/89 90/90/90 87/87/87
f 88/88/88 91/91/91 92/92/92
f 92/92/92 89/89/89 88/88/88
f 91/91/91 93/93/93 94/94/94
f 94/94/94 92/92/92 91/91/91
f 95/95/95 96/96/96 94/94/94
f 94/94/94 93/93/93 95/95/95
f 95/95/95 97/97/97 98/98/98
f 98/98/98 96/96/96 95/95/95
f 99/99/99 100/100/100 98/98/98
f 98/98/98 97/97/97 99/99/99
f 99/99/99 101/101/101 102/102/102
f 102/102/102 100/100/100 99/99/99
f 101/101/101 103/103/103 104/104/104
f 104/104/104 102/102/102 101/101/101
f 105/105/105 106/106/106 104/104/104
f 104/104/104 103/103/103 105/105/105
f 105/105/105 107/107/107 108/108/108
f 108/108/108 106/106/106 105/105/105
f 107/107/107 109/109/109 110/110/110
f 110/110/110 108/108/108 107/107/107
f 109/109/109 111/111/111 112/112/112
f 112/112/112 110/110/110 109/109/109
f 65/65/65 112/112/112 111/111/111
f 111/111/111 66/66/66 65/65/65
f 113/113/113 114/114/114 115/115/115
f 116/116/116 113/113/113 115/115/115
f 117/117/117 116/116/116 115/115/115
f 118/118/118 117/117/117 115/115/115
f 119/119/119 118/118/118 115/115/115
f 120/120/120 119/119/119 115/115/115
f 121/121/121 120/120/120 115/115/115
f 121/121/121 115/115/115 122/122/122
f 123/123/123 121/121/121 122/122/122
f 124/124/124 123/123/123 122/122/122
f 125/125/125 124/124/124 122/122/122
f 126/126/126 125/125/125 122/122/122
f 127/127/127 126/126/126 122/122/122
f 128/128/128 127/127/127 122/122/122
f 128/128/128 122/122/122 129/129/129
f 115/115/115 114/114/114 130/130/130
f 115/115/115 130/130/130 131/131/131
f 115/115/115 131/131/131 132/132/132
f 133/133/133 115/115/115 132/132/132
f 133/133/133 132/132/132 134/134/134
f 133/133/133 134/134/134 135/135/135
f 133/133/133 135/135/135 136/136/136
f 133/133/133 136/136/136 137/137/137
f 133/133/133 137/137/137 138/138/138
f 133/133/133 138/138/138 139/139/139
f 129/129/129 133/133/133 139/139/139
f 129/129/129 139/139/139 140/140/140
f 128/128/128 129/129/129 140/140/140
f 141/141/141 142/142/142 143/143/143
f 144/144/144 141/141/141 143/143/143
f 145/145/145 144/144/144 143/143/143
f 146/146/146 145/145/145 143/143/143
f 147/147/147 146/146/146 143/143/143
f 148/148/148 147/147/147 143/143/143
f 149/149/149 148/148/148 143/143/143
f 149/149/149 143/143/143 150/150/150
f 149/149/149 150/150/150 151/151/151
f 149/149/149 151/151/151 152/152/152
f 153/153/153 149/149/149 152/152/152
f 154/154/154 153/153/153 152/152/152
f 155/155/155 154/154/154 152/152/152
f 156/156/156 155/155/155 152/152/152
f 157/157/157 156/156/156 152/152/152
f 158/158/158 157/157/157 152/152/152
f 159/159/159 158/158/158 152/152/152
f 160/160/160 159/159/159 152/152/152
f 161/161/161 160/160/160 152/152/152
f 162/162/162 161/161/161 152/152/152
f 162/162/162 152/152/152 163/163/163
f 162/162/162 163/163/163 164/164/164
