o 
v -3.2178874015808105 0 3.2227401733398438
v -3.2178874015808105 0 0.006010170094668865
v -0.0011573400115594268 0 0.006010170094668865
v -0.0011573400115594268 0 3.2227401733398438
v 3.2155725955963135 0 0.006010170094668865
v 3.2155725955963135 0 3.2227401733398438
v -3.2178874015808105 0 -3.2107198238372803
v -0.0011573400115594268 0 -3.2107198238372803
v 3.2155725955963135 0 -3.2107198238372803
v -2.1430773735046387 3.1866300106048584 2.147930145263672
v -0.0011573400115594268 3.1866300106048584 2.147930145263672
v -0.0011573400115594268 3.760540008544922 0.006010170094668865
v -2.1430773735046387 3.1866300106048584 0.006010170094668865
v 2.1407625675201416 3.1866300106048584 2.147930145263672
v 2.1407625675201416 3.1866300106048584 0.006010170094668865
v -0.0011573400115594268 3.1866300106048584 -2.1359097957611084
v -2.1430773735046387 3.1866300106048584 -2.1359097957611084
v 2.1407625675201416 3.1866300106048584 -2.1359097957611084
v -3.2178874015808105 0 3.2227401733398438
v -0.0011573400115594268 0 3.2227401733398438
v -0.0011573400115594268 0.45869898796081543 3.1695401668548584
v -3.164687395095825 0.45869898796081543 3.1695401668548584
v 3.2155725955963135 0 3.2227401733398438
v 3.162372589111328 0.45869898796081543 3.1695401668548584
v -0.0011573400115594268 0.6035439968109131 3.006010055541992
v -3.001157283782959 0.6035439968109131 3.006010055541992
v 2.998842716217041 0.6035439968109131 3.006010055541992
v -0.0011573400115594268 1.0499999523162842 3.006010055541992
v -3.001157283782959 1.0499999523162842 3.006010055541992
v 2.998842716217041 1.0499999523162842 3.006010055541992
v -0.0011573400115594268 1.399999976158142 3.332080125808716
v -3.3272273540496826 1.399999976158142 3.332080125808716
v 3.3249125480651855 1.399999976158142 3.332080125808716
v -0.0011573400115594268 1.75 3.4908502101898193
v -3.485997438430786 1.75 3.4908502101898193
v 3.483682632446289 1.75 3.4908502101898193
v -0.0011573400115594268 2.0999999046325684 3.4908502101898193
v -3.485997438430786 2.0999999046325684 3.4908502101898193
v 3.483682632446289 2.0999999046325684 3.4908502101898193
v -0.0011573400115594268 2.450000047683716 3.332080125808716
v -3.3272273540496826 2.450000047683716 3.332080125808716
v 3.3249125480651855 2.450000047683716 3.332080125808716
v -0.0011573400115594268 2.6940200328826904 3.006010055541992
v -3.001157283782959 2.6940200328826904 3.006010055541992
v 2.998842716217041 2.6940200328826904 3.006010055541992
v -0.0011573400115594268 3.0127499103546143 2.021160125732422
v -2.0163073539733887 3.0127499103546143 2.021160125732422
v 2.0139925479888916 3.0127499103546143 2.021160125732422
v -0.0011573400115594268 3.1866300106048584 2.147930145263672
v -2.1430773735046387 3.1866300106048584 2.147930145263672
v 2.1407625675201416 3.1866300106048584 2.147930145263672
v 3.2155725955963135 0 3.2227401733398438
v 3.2155725955963135 0 0.006010170094668865
v 3.162372589111328 0.45869898796081543 0.006010170094668865
v 3.162372589111328 0.45869898796081543 3.1695401668548584
v 3.2155725955963135 0 -3.2107198238372803
v 3.162372589111328 0.45869898796081543 -3.157519817352295
v 2.998842716217041 0.6035439968109131 0.006010170094668865
v 2.998842716217041 0.6035439968109131 3.006010055541992
v 2.998842716217041 0.6035439968109131 -2.993989944458008
v 2.998842716217041 1.0499999523162842 0.006010170094668865
v 2.998842716217041 1.0499999523162842 3.006010055541992
v 2.998842716217041 1.0499999523162842 -2.993989944458008
v 3.3249125480651855 1.399999976158142 0.006010170094668865
v 3.3249125480651855 1.399999976158142 3.332080125808716
v 3.3249125480651855 1.399999976158142 -3.3200597763061523
v 3.483682632446289 1.75 0.006010170094668865
v 3.483682632446289 1.75 3.4908502101898193
v 3.483682632446289 1.75 -3.478829860687256
v 3.483682632446289 2.0999999046325684 0.006010170094668865
v 3.483682632446289 2.0999999046325684 3.4908502101898193
v 3.483682632446289 2.0999999046325684 -3.478829860687256
v 3.3249125480651855 2.450000047683716 0.006010170094668865
v 3.3249125480651855 2.450000047683716 3.332080125808716
v 3.3249125480651855 2.450000047683716 -3.3200597763061523
v 2.998842716217041 2.6940200328826904 0.006010170094668865
v 2.998842716217041 2.6940200328826904 3.006010055541992
v 2.998842716217041 2.6940200328826904 -2.993989944458008
v 2.0139925479888916 3.0127499103546143 0.006010170094668865
v 2.0139925479888916 3.0127499103546143 2.021160125732422
v 2.0139925479888916 3.0127499103546143 -2.0091397762298584
v 2.1407625675201416 3.1866300106048584 0.006010170094668865
v 2.1407625675201416 3.1866300106048584 2.147930145263672
v 2.1407625675201416 3.1866300106048584 -2.1359097957611084
v 3.2155725955963135 0 -3.2107198238372803
v -0.0011573400115594268 0 -3.2107198238372803
v -0.0011573400115594268 0.45869898796081543 -3.157519817352295
v 3.162372589111328 0.45869898796081543 -3.157519817352295
v -3.2178874015808105 0 -3.2107198238372803
v -3.164687395095825 0.45869898796081543 -3.157519817352295
v -0.0011573400115594268 0.6035439968109131 -2.993989944458008
v 2.998842716217041 0.6035439968109131 -2.993989944458008
v -3.001157283782959 0.6035439968109131 -2.993989944458008
v -0.0011573400115594268 1.0499999523162842 -2.993989944458008
v 2.998842716217041 1.0499999523162842 -2.993989944458008
v -3.001157283782959 1.0499999523162842 -2.993989944458008
v -0.0011573400115594268 1.399999976158142 -3.3200597763061523
v 3.3249125480651855 1.399999976158142 -3.3200597763061523
v -3.3272273540496826 1.399999976158142 -3.3200597763061523
v -0.0011573400115594268 1.75 -3.478829860687256
v 3.483682632446289 1.75 -3.478829860687256
v -3.485997438430786 1.75 -3.478829860687256
v -0.0011573400115594268 2.0999999046325684 -3.478829860687256
v 3.483682632446289 2.0999999046325684 -3.478829860687256
v -3.485997438430786 2.0999999046325684 -3.478829860687256
v -0.0011573400115594268 2.450000047683716 -3.3200597763061523
v 3.3249125480651855 2.450000047683716 -3.3200597763061523
v -3.3272273540496826 2.450000047683716 -3.3200597763061523
v -0.0011573400115594268 2.6940200328826904 -2.993989944458008
v 2.998842716217041 2.6940200328826904 -2.993989944458008
v -3.001157283782959 2.6940200328826904 -2.993989944458008
v -0.0011573400115594268 3.0127499103546143 -2.0091397762298584
v 2.0139925479888916 3.0127499103546143 -2.0091397762298584
v -2.0163073539733887 3.0127499103546143 -2.0091397762298584
v -0.0011573400115594268 3.1866300106048584 -2.1359097957611084
v 2.1407625675201416 3.1866300106048584 -2.1359097957611084
v -2.1430773735046387 3.1866300106048584 -2.1359097957611084
v -3.2178874015808105 0 -3.2107198238372803
v -3.2178874015808105 0 0.006010170094668865
v -3.164687395095825 0.45869898796081543 0.006010170094668865
v -3.164687395095825 0.45869898796081543 -3.157519817352295
v -3.2178874015808105 0 3.2227401733398438
v -3.164687395095825 0.45869898796081543 3.1695401668548584
v -3.001157283782959 0.6035439968109131 0.006010170094668865
v -3.001157283782959 0.6035439968109131 -2.993989944458008
v -3.001157283782959 0.6035439968109131 3.006010055541992
v -3.001157283782959 1.0499999523162842 0.006010170094668865
v -3.001157283782959 1.0499999523162842 -2.993989944458008
v -3.001157283782959 1.0499999523162842 3.006010055541992
v -3.3272273540496826 1.399999976158142 0.006010170094668865
v -3.3272273540496826 1.399999976158142 -3.3200597763061523
v -3.3272273540496826 1.399999976158142 3.332080125808716
v -3.485997438430786 1.75 0.006010170094668865
v -3.485997438430786 1.75 -3.478829860687256
v -3.485997438430786 1.75 3.4908502101898193
v -3.485997438430786 2.0999999046325684 0.006010170094668865
v -3.485997438430786 2.0999999046325684 -3.478829860687256
v -3.485997438430786 2.0999999046325684 3.4908502101898193
v -3.3272273540496826 2.450000047683716 0.006010170094668865
v -3.3272273540496826 2.450000047683716 -3.3200597763061523
v -3.3272273540496826 2.450000047683716 3.332080125808716
v -3.001157283782959 2.6940200328826904 0.006010170094668865
v -3.001157283782959 2.6940200328826904 -2.993989944458008
v -3.001157283782959 2.6940200328826904 3.006010055541992
v -2.0163073539733887 3.0127499103546143 0.006010170094668865
v -2.0163073539733887 3.0127499103546143 -2.0091397762298584
v -2.0163073539733887 3.0127499103546143 2.021160125732422
v -2.1430773735046387 3.1866300106048584 0.006010170094668865
v -2.1430773735046387 3.1866300106048584 -2.1359097957611084
v -2.1430773735046387 3.1866300106048584 2.147930145263672
vt 1 0
vt 1 0.5
vt 0.5 0.5
vt 0.5 0
vt 0 0.5
vt 0 0
vt 1 1
vt 0.5 1
vt 0 1
vt 0 0
vt 0.5 0
vt 0.5 0.5
vt 0 0.5
vt 1 0
vt 1 0.5
vt 0.5 1
vt 0 1
vt 1 1
vt 0 0
vt 0.5 0
vt 0.5 0.10000000149011612
vt 0 0.10000000149011612
vt 1 0
vt 1 0.10000000149011612
vt 0.5 0.20000000298023224
vt 0 0.20000000298023224
vt 1 0.20000000298023224
vt 0.5 0.30000001192092896
vt 0 0.30000001192092896
vt 1 0.30000001192092896
vt 0.5 0.4000000059604645
vt 0 0.4000000059604645
vt 1 0.4000000059604645
vt 0.5 0.5
vt 0 0.5
vt 1 0.5
vt 0.5 0.6000000238418579
vt 0 0.6000000238418579
vt 1 0.6000000238418579
vt 0.5 0.699999988079071
vt 0 0.699999988079071
vt 1 0.699999988079071
vt 0.5 0.800000011920929
vt 0 0.800000011920929
vt 1 0.800000011920929
vt 0.5 0.8999999761581421
vt 0 0.8999999761581421
vt 1 0.8999999761581421
vt 0.5 1
vt 0 1
vt 1 1
vt 0 0
vt 0.5 0
vt 0.5 0.10000000149011612
vt 0 0.10000000149011612
vt 1 0
vt 1 0.10000000149011612
vt 0.5 0.20000000298023224
vt 0 0.20000000298023224
vt 1 0.20000000298023224
vt 0.5 0.30000001192092896
vt 0 0.30000001192092896
vt 1 0.30000001192092896
vt 0.5 0.4000000059604645
vt 0 0.4000000059604645
vt 1 0.4000000059604645
vt 0.5 0.5
vt 0 0.5
vt 1 0.5
vt 0.5 0.6000000238418579
vt 0 0.6000000238418579
vt 1 0.6000000238418579
vt 0.5 0.699999988079071
vt 0 0.699999988079071
vt 1 0.699999988079071
vt 0.5 0.800000011920929
vt 0 0.800000011920929
vt 1 0.800000011920929
vt 0.5 0.8999999761581421
vt 0 0.8999999761581421
vt 1 0.8999999761581421
vt 0.5 1
vt 0 1
vt 1 1
vt 0 0
vt 0.5 0
vt 0.5 0.10000000149011612
vt 0 0.10000000149011612
vt 1 0
vt 1 0.10000000149011612
vt 0.5 0.20000000298023224
vt 0 0.20000000298023224
vt 1 0.20000000298023224
vt 0.5 0.30000001192092896
vt 0 0.30000001192092896
vt 1 0.30000001192092896
vt 0.5 0.4000000059604645
vt 0 0.4000000059604645
vt 1 0.4000000059604645
vt 0.5 0.5
vt 0 0.5
vt 1 0.5
vt 0.5 0.6000000238418579
vt 0 0.6000000238418579
vt 1 0.6000000238418579
vt 0.5 0.699999988079071
vt 0 0.699999988079071
vt 1 0.699999988079071
vt 0.5 0.800000011920929
vt 0 0.800000011920929
vt 1 0.800000011920929
vt 0.5 0.8999999761581421
vt 0 0.8999999761581421
vt 1 0.8999999761581421
vt 0.5 1
vt 0 1
vt 1 1
vt 0 0
vt 0.5 0
vt 0.5 0.10000000149011612
vt 0 0.10000000149011612
vt 1 0
vt 1 0.10000000149011612
vt 0.5 0.20000000298023224
vt 0 0.20000000298023224
vt 1 0.20000000298023224
vt 0.5 0.30000001192092896
vt 0 0.30000001192092896
vt 1 0.30000001192092896
vt 0.5 0.4000000059604645
vt 0 0.4000000059604645
vt 1 0.4000000059604645
vt 0.5 0.5
vt 0 0.5
vt 1 0.5
vt 0.5 0.6000000238418579
vt 0 0.6000000238418579
vt 1 0.6000000238418579
vt 0.5 0.699999988079071
vt 0 0.699999988079071
vt 1 0.699999988079071
vt 0.5 0.800000011920929
vt 0 0.800000011920929
vt 1 0.800000011920929
vt 0.5 0.8999999761581421
vt 0 0.8999999761581421
vt 1 0.8999999761581421
vt 0.5 1
vt 0 1
vt 1 1
vn 0 -1 0
vn 0 -1 0
vn 0 -1 0
vn 0 -1 0
vn 0 -1 0
vn 0 -1 0
vn 0 -1 0
vn 0 -1 0
vn 0 -1 0
vn -0.13162900391251248 0.9825210484554514 0.13162900391251248
vn 0.06543820424840505 0.9785990824910331 0.19509402136521847
vn 0 1 0
vn -0.19509402136521847 0.9785990824910331 -0.06543820424840505
vn 0 1 0
vn 0.19509402260175937 0.9785990886935695 0.06543810780561465
vn -0.06543820424840505 0.9785990824910331 -0.19509402136521847
vn 0 1 0
vn 0.1316289876466905 0.982520919059897 -0.13162998602447135
vn 0 0.11521802531796971 0.9933402270329273
vn 0 0.11521802531796971 0.9933402270329273
vn 0 0.4623910379995563 0.8866761122178114
vn 0 0.3619439666792788 0.9321998524911217
vn 0 0.11521802531796971 0.9933402270329273
vn 0 0.3619439666792788 0.9321998524911217
vn 0 0.4104549670621084 0.9118808694199279
vn 0 0.4787567870000677 0.8779475718409225
vn 0 0.4787567870000677 0.8779475718409225
vn 0 -0.36627817356291126 0.9305054000764411
vn 0 -0.42403491971928137 0.905645839640785
vn 0 -0.42403491971928137 0.905645839640785
vn 0 -0.5546517229540788 0.8320826078125125
vn 0 -0.5079880350930164 0.8613641252120594
vn 0 -0.5079880350930164 0.8613641252120594
vn 0 -0.21133301837422908 0.9774141166081232
vn 0 -0.18113892024310507 0.9834575189468847
vn 0 -0.18113892024310507 0.9834575189468847
vn 0 0.21133301837422908 0.9774141166081232
vn 0 0.18113892024310507 0.9834575189468847
vn 0 0.18113892024310507 0.9834575189468847
vn 0 0.6265440027255794 0.7793860485334653
vn 0 0.5493617542021476 0.8355846234941972
vn 0 0.5493617542021476 0.8355846234941972
vn 0 0.88804315965648 0.45976009677584617
vn 0 0.8495557446987415 0.5274988499033594
vn 0 0.8495557446987415 0.5274988499033594
vn 0 0.30879790455778017 0.9511276749946478
vn 0 0.37539998264820695 0.9268629095112859
vn 0 0.37539998264820695 0.9268629095112859
vn 0 -0.5890960187071422 0.8080630425550933
vn 0 -0.5890960187071422 0.8080630425550933
vn 0 -0.5890960187071422 0.8080630425550933
vn 0.9933402270329273 0.11521802531796971 0
vn 0.9933402270329273 0.11521802531796971 0
vn 0.8866761122178114 0.4623910379995563 0
vn 0.9321998524911217 0.3619439666792788 0
vn 0.9933402270329273 0.11521802531796971 0
vn 0.9321998524911217 0.3619439666792788 0
vn 0.9118808694199279 0.4104549670621084 0
vn 0.8779475718409225 0.4787567870000677 0
vn 0.8779475718409225 0.4787567870000677 0
vn 0.9305054000764411 -0.36627817356291126 0
vn 0.905645839640785 -0.42403491971928137 0
vn 0.905645839640785 -0.42403491971928137 0
vn 0.8320826078125125 -0.5546517229540788 0
vn 0.8613641252120594 -0.5079880350930164 0
vn 0.8613641252120594 -0.5079880350930164 0
vn 0.9774141166081232 -0.21133301837422908 0
vn 0.9834575189468847 -0.18113892024310507 0
vn 0.9834575189468847 -0.18113892024310507 0
vn 0.9774141166081232 0.21133301837422908 0
vn 0.9834575189468847 0.18113892024310507 0
vn 0.9834575189468847 0.18113892024310507 0
vn 0.7793860485334653 0.6265440027255794 0
vn 0.8355843420254979 0.5493621823185646 0
vn 0.8355846234941972 0.5493617542021476 0
vn 0.45976009677584617 0.88804315965648 0
vn 0.5274988499033594 0.8495557446987415 0
vn 0.5274988499033594 0.8495557446987415 0
vn 0.9511276749946478 0.30879790455778017 0
vn 0.9268629095112859 0.37539998264820695 0
vn 0.9268629095112859 0.37539998264820695 0
vn 0.8080630425550933 -0.5890960187071422 0
vn 0.8080630425550933 -0.5890960187071422 0
vn 0.8080630425550933 -0.5890960187071422 0
vn 0 0.11521802531796971 -0.9933402270329273
vn 0 0.11521802531796971 -0.9933402270329273
vn 0 0.4623910379995563 -0.8866761122178114
vn 0 0.3619439666792788 -0.9321998524911217
vn 0 0.11521802531796971 -0.9933402270329273
vn 0 0.3619439666792788 -0.9321998524911217
vn 0 0.4104549670621084 -0.9118808694199279
vn 0 0.4787567870000677 -0.8779475718409225
vn 0 0.4787567870000677 -0.8779475718409225
vn 0 -0.36627817356291126 -0.9305054000764411
vn 0 -0.42403491971928137 -0.905645839640785
vn 0 -0.42403491971928137 -0.905645839640785
vn 0 -0.5546517229540788 -0.8320826078125125
vn 0 -0.5079880350930164 -0.8613641252120594
vn 0 -0.5079880350930164 -0.8613641252120594
vn 0 -0.21133301837422908 -0.9774141166081232
vn 0 -0.18113892024310507 -0.9834575189468847
vn 0 -0.18113892024310507 -0.9834575189468847
vn 0 0.21133301837422908 -0.9774141166081232
vn 0 0.18113892024310507 -0.9834575189468847
vn 0 0.18113892024310507 -0.9834575189468847
vn 0 0.6265440027255794 -0.7793860485334653
vn 0 0.5493621823185646 -0.8355843420254979
vn 0 0.5493621823185646 -0.8355843420254979
vn 0 0.88804315965648 -0.45976009677584617
vn 0 0.8495561979152395 -0.5274981199812964
vn 0 0.8495561979152395 -0.5274981199812964
vn 0 0.30879790455778017 -0.9511276749946478
vn 0 0.37539998264820695 -0.9268629095112859
vn 0 0.37539998264820695 -0.9268629095112859
vn 0 -0.5890960187071422 -0.8080630425550933
vn 0 -0.5890960187071422 -0.8080630425550933
vn 0 -0.5890960187071422 -0.8080630425550933
vn -0.9933402270329273 0.11521802531796971 0
vn -0.9933402270329273 0.11521802531796971 0
vn -0.8866761122178114 0.4623910379995563 0
vn -0.9321998524911217 0.3619439666792788 0
vn -0.9933402270329273 0.11521802531796971 0
vn -0.9321998524911217 0.3619439666792788 0
vn -0.9118808694199279 0.4104549670621084 0
vn -0.8779475718409225 0.4787567870000677 0
vn -0.8779475718409225 0.4787567870000677 0
vn -0.9305054000764411 -0.36627817356291126 0
vn -0.905645839640785 -0.42403491971928137 0
vn -0.905645839640785 -0.42403491971928137 0
vn -0.8320826078125125 -0.5546517229540788 0
vn -0.8613641252120594 -0.5079880350930164 0
vn -0.8613641252120594 -0.5079880350930164 0
vn -0.9774141166081232 -0.21133301837422908 0
vn -0.9834575189468847 -0.18113892024310507 0
vn -0.9834575189468847 -0.18113892024310507 0
vn -0.9774141166081232 0.21133301837422908 0
vn -0.9834575189468847 0.18113892024310507 0
vn -0.9834575189468847 0.18113892024310507 0
vn -0.7793860485334653 0.6265440027255794 0
vn -0.8355846234941972 0.5493617542021476 0
vn -0.8355843420254979 0.5493621823185646 0
vn -0.45976009677584617 0.88804315965648 0
vn -0.5274981199812964 0.8495561979152395 0
vn -0.5274988499033594 0.8495557446987415 0
vn -0.9511276749946478 0.30879790455778017 0
vn -0.9268629095112859 0.37539998264820695 0
vn -0.9268629095112859 0.37539998264820695 0
vn -0.8080630425550933 -0.5890960187071422 0
vn -0.8080630425550933 -0.5890960187071422 0
vn -0.8080630425550933 -0.5890960187071422 0
f 1/1/1 2/2/2 3/3/3
f 3/3/3 4/4/4 1/1/1
f 4/4/4 3/3/3 5/5/5
f 5/5/5 6/6/6 4/4/4
f 2/2/2 7/7/7 8/8/8
f 8/8/8 3/3/3 2/2/2
f 3/3/3 8/8/8 9/9/9
f 9/9/9 5/5/5 3/3/3
f 10/10/10 11/11/11 12/12/12
f 12/12/12 13/13/13 10/10/10
f 11/11/11 14/14/14 15/15/15
f 15/15/15 12/12/12 11/11/11
f 13/13/13 12/12/12 16/16/16
f 16/16/16 17/17/17 13/13/13
f 12/12/12 15/15/15 18/18/18
f 18/18/18 16/16/16 12/12/12
f 19/19/19 20/20/20 21/21/21
f 21/21/21 22/22/22 19/19/19
f 20/20/20 23/23/23 24/24/24
f 24/24/24 21/21/21 20/20/20
f 22/22/22 21/21/21 25/25/25
f 25/25/25 26/26/26 22/22/22
f 21/21/21 24/24/24 27/27/27
f 27/27/27 25/25/25 21/21/21
f 26/26/26 25/25/25 28/28/28
f 28/28/28 29/29/29 26/26/26
f 25/25/25 27/27/27 30/30/30
f 30/30/30 28/28/28 25/25/25
f 29/29/29 28/28/28 31/31/31
f 31/31/31 32/32/32 29/29/29
f 28/28/28 30/30/30 33/33/33
f 33/33/33 31/31/31 28/28/28
f 32/32/32 31/31/31 34/34/34
f 34/34/34 35/35/35 32/32/32
f 31/31/31 33/33/33 36/36/36
f 36/36/36 34/34/34 31/31/31
f 35/35/35 34/34/34 37/37/37
f 37/37/37 38/38/38 35/35/35
f 34/34/34 36/36/36 39/39/39
f 39/39/39 37/37/37 34/34/34
f 38/38/38 37/37/37 40/40/40
f 40/40/40 41/41/41 38/38/38
f 37/37/37 39/39/39 42/42/42
f 42/42/42 40/40/40 37/37/37
f 41/41/41 40/40/40 43/43/43
f 43/43/43 44/44/44 41/41/41
f 40/40/40 42/42/42 45/45/45
f 45/45/45 43/43/43 40/40/40
f 44/44/44 43/43/43 46/46/46
f 46/46/46 47/47/47 44/44/44
f 43/43/43 45/45/45 48/48/48
f 48/48/48 46/46/46 43/43/43
f 47/47/47 46/46/46 49/49/49
f 49/49/49 50/50/50 47/47/47
f 46/46/46 48/48/48 51/51/51
f 51/51/51 49/49/49 46/46/46
f 52/52/52 53/53/53 54/54/54
f 54/54/54 55/55/55 52/52/52
f 53/53/53 56/56/56 57/57/57
f 57/57/57 54/54/54 53/53/53
f 55/55/55 54/54/54 58/58/58
f 58/58/58 59/59/59 55/55/55
f 54/54/54 57/57/57 60/60/60
f 60/60/60 58/58/58 54/54/54
f 59/59/59 58/58/58 61/61/61
f 61/61/61 62/62/62 59/59/59
f 58/58/58 60/60/60 63/63/63
f 63/63/63 61/61/61 58/58/58
f 62/62/62 61/61/61 64/64/64
f 64/64/64 65/65/65 62/62/62
f 61/61/61 63/63/63 66/66/66
f 66/66/66 64/64/64 61/61/61
f 65/65/65 64/64/64 67/67/67
f 67/67/67 68/68/68 65/65/65
f 64/64/64 66/66/66 69/69/69
f 69/69/69 67/67/67 64/64/64
f 68/68/68 67/67/67 70/70/70
f 70/70/70 71/71/71 68/68/68
f 67/67/67 69/69/69 72/72/72
f 72/72/72 70/70/70 67/67/67
f 71/71/71 70/70/70 73/73/73
f 73/73/73 74/74/74 71/71/71
f 70/70/70 72/72/72 75/75/75
f 75/75/75 73/73/73 70/70/70
f 74/74/74 73/73/73 76/76/76
f 76/76/76 77/77/77 74/74/74
f 73/73/73 75/75/75 78/78/78
f 78/78/78 76/76/76 73/73/73
f 77/77/77 76/76/76 79/79/79
f 79/79/79 80/80/80 77/77/77
f 76/76/76 78/78/78 81/81/81
f 81/81/81 79/79/79 76/76/76
f 80/80/80 79/79/79 82/82/82
f 82/82/82 83/83/83 80/80/80
f 79/79/79 81/81/81 84/84/84
f 84/84/84 82/82/82 79/79/79
f 85/85/85 86/86/86 87/87/87
f 87/87/87 88/88/88 85/85/85
f 86/86/86 89/89/89 90/90/90
f 90/90/90 87/87/87 86/86/86
f 88/88/88 87/87/87 91/91/91
f 91/91/91 92/92/92 88/88/88
f 87/87/87 90/90/90 93/93/93
f 93/93/93 91/91/91 87/87/87
f 92/92/92 91/91/91 94/94/94
f 94/94/94 95/95/95 92/92/92
f 91/91/91 93/93/93 96/96/96
f 96/96/96 94/94/94 91/91/91
f 95/95/95 94/94/94 97/97/97
f 97/97/97 98/98/98 95/95/95
f 94/94/94 96/96/96 99/99/99
f 99/99/99 97/97/97 94/94/94
f 98/98/98 97/97/97 100/100/100
f 100/100/100 101/101/101 98/98/98
f 97/97/97 99/99/99 102/102/102
f 102/102/102 100/100/100 97/97/97
f 101/101/101 100/100/100 103/103/103
f 103/103/103 104/104/104 101/101/101
f 100/100/100 102/102/102 105/105/105
f 105/105/105 103/103/103 100/100/100
f 104/104/104 103/103/103 106/106/106
f 106/106/106 107/107/107 104/104/104
f 103/103/103 105/105/105 108/108/108
f 108/108/108 106/106/106 103/103/103
f 107/107/107 106/106/106 109/109/109
f 109/109/109 110/110/110 107/107/107
f 106/106/106 108/108/108 111/111/111
f 111/111/111 109/109/109 106/106/106
f 110/110/110 109/109/109 112/112/112
f 112/112/112 113/113/113 110/110/110
f 109/109/109 111/111/111 114/114/114
f 114/114/114 112/112/112 109/109/109
f 113/113/113 112/112/112 115/115/115
f 115/115/115 116/116/116 113/113/113
f 112/112/112 114/114/114 117/117/117
f 117/117/117 115/115/115 112/112/112
f 118/118/118 119/119/119 120/120/120
f 120/120/120 121/121/121 118/118/118
f 119/119/119 122/122/122 123/123/123
f 123/123/123 120/120/120 119/119/119
f 121/121/121 120/120/120 124/124/124
f 124/124/124 125/125/125 121/121/121
f 120/120/120 123/123/123 126/126/126
f 126/126/126 124/124/124 120/120/120
f 125/125/125 124/124/124 127/127/127
f 127/127/127 128/128/128 125/125/125
f 124/124/124 126/126/126 129/129/129
f 129/129/129 127/127/127 124/124/124
f 128/128/128 127/127/127 130/130/130
f 130/130/130 131/131/131 128/128/128
f 127/127/127 129/129/129 132/132/132
f 132/132/132 130/130/130 127/127/127
f 131/131/131 130/130/130 133/133/133
f 133/133/133 134/134/134 131/131/131
f 130/130/130 132/132/132 135/135/135
f 135/135/135 133/133/133 130/130/130
f 134/134/134 133/133/133 136/136/136
f 136/136/136 137/137/137 134/134/134
f 133/133/133 135/135/135 138/138/138
f 138/138/138 136/136/136 133/133/133
f 137/137/137 136/136/136 139/139/139
f 139/139/139 140/140/140 137/137/137
f 136/136/136 138/138/138 141/141/141
f 141/141/141 139/139/139 136/136/136
f 140/140/140 139/139/139 142/142/142
f 142/142/142 143/143/143 140/140/140
f 139/139/139 141/141/141 144/144/144
f 144/144/144 142/142/142 139/139/139
f 143/143/143 142/142/142 145/145/145
f 145/145/145 146/146/146 143/143/143
f 142/142/142 144/144/144 147/147/147
f 147/147/147 145/145/145 142/142/142
f 146/146/146 145/145/145 148/148/148
f 148/148/148 149/149/149 146/146/146
f 145/145/145 147/147/147 150/150/150
f 150/150/150 148/148/148 145/145/145
