o 
v 1.5190387964248657 0.10960999876260757 -1.5128720998764038
v -1.4387480020523071 0.10960999876260757 1.444914698600769
v -1.4387480020523071 0.10960999876260757 -1.5128720998764038
v 1.5190387964248657 82.97344207763672 -1.512876033782959
v -1.4387480020523071 82.97344207763672 1.4449108839035034
v 1.5190387964248657 82.97344207763672 1.4449108839035034
v 1.1500879526138306 31.089204788208008 -1.1344966888427734
v 1.5190387964248657 31.089204788208008 -1.5128720998764038
v 1.1500879526138306 31.089204788208008 -1.5128720998764038
v 1.1500879526138306 66.88883209228516 -1.512876033782959
v 1.5190387964248657 66.88883209228516 -1.1344966888427734
v 1.1500879526138306 66.88883209228516 -1.1344966888427734
v 1.1500879526138306 31.089204788208008 -1.1344966888427734
v 1.5190387964248657 66.88883209228516 -1.1344966888427734
v 1.5190387964248657 31.089204788208008 -1.1344966888427734
v 1.1500879526138306 31.089204788208008 -1.5128720998764038
v 1.1500879526138306 66.88883209228516 -1.1344966888427734
v 1.1500879526138306 31.089204788208008 -1.1344966888427734
v -1.4387480020523071 82.97344207763672 -1.512876033782959
v -1.0679571628570557 66.88883209228516 -1.5128798484802246
v -1.4387480020523071 66.88883209228516 -1.512876033782959
v -1.4387480020523071 66.88883209228516 -1.512876033782959
v -1.0679571628570557 66.88883209228516 -1.1327110528945923
v -1.4387480020523071 66.88883209228516 -1.1327110528945923
v -1.0679571628570557 31.089204788208008 -1.1327110528945923
v -1.4387480020523071 66.88883209228516 -1.1327110528945923
v -1.0679571628570557 66.88883209228516 -1.1327110528945923
v -1.0679571628570557 31.089204788208008 -1.1327110528945923
v -1.4387480020523071 31.089204788208008 -1.5128720998764038
v -1.4387480020523071 31.089204788208008 -1.1327110528945923
v -1.0679571628570557 66.88883209228516 -1.1327110528945923
v -1.0679571628570557 31.089204788208008 -1.512876033782959
v -1.0679571628570557 31.089204788208008 -1.1327110528945923
v 1.519042730331421 66.88883209228516 1.0567265748977661
v 1.5190387964248657 82.97344207763672 1.4449108839035034
v 1.5190387964248657 66.88883209228516 1.4449108839035034
v 1.5190387964248657 66.88883209228516 1.4449108839035034
v 1.1500879526138306 66.88883209228516 1.0567265748977661
v 1.519042730331421 66.88883209228516 1.0567265748977661
v 1.519042730331421 31.089204788208008 1.0567303895950317
v 1.1500879526138306 66.88883209228516 1.0567265748977661
v 1.1500879526138306 31.089204788208008 1.0567303895950317
v 1.1500879526138306 31.089204788208008 1.0567303895950317
v 1.5190387964248657 31.089204788208008 1.444914698600769
v 1.519042730331421 31.089204788208008 1.0567303895950317
v 1.1500879526138306 66.88883209228516 1.0567265748977661
v 1.1500879526138306 31.089204788208008 1.444914698600769
v 1.1500879526138306 31.089204788208008 1.0567303895950317
v 1.1500879526138306 66.88883209228516 1.4449108839035034
v -1.0679571628570557 31.089204788208008 1.444914698600769
v 1.1500879526138306 31.089204788208008 1.444914698600769
v -1.4387480020523071 31.089204788208008 -1.1327110528945923
v -1.4387480020523071 66.88883209228516 1.0585159063339233
v -1.4387480020523071 66.88883209228516 -1.1327110528945923
v -1.4387480020523071 31.089204788208008 1.0585159063339233
v -1.0679571628570557 31.089204788208008 1.444914698600769
v -1.0679571628570557 31.089204788208008 1.0585159063339233
v -1.0679571628570557 66.88883209228516 1.4449108839035034
v -1.4387480020523071 66.88883209228516 1.0585159063339233
v -1.0679571628570557 66.88883209228516 1.0585159063339233
v -1.0679571628570557 31.089204788208008 1.0585159063339233
v -1.0679571628570557 66.88883209228516 1.4449108839035034
v -1.0679571628570557 66.88883209228516 1.0585159063339233
v -1.4387480020523071 66.88883209228516 1.0585159063339233
v -1.0679571628570557 31.089204788208008 1.0585159063339233
v -1.0679571628570557 66.88883209228516 1.0585159063339233
v 1.5190387964248657 0.10960999876260757 1.444914698600769
v -1.4387480020523071 82.97344207763672 -1.512876033782959
v 1.5190387964248657 31.089204788208008 -1.1344966888427734
v 1.5190387964248657 66.88883209228516 -1.512876033782959
v 1.1500879526138306 66.88883209228516 -1.1344966888427734
v 1.1500879526138306 66.88883209228516 -1.512876033782959
v 1.5190387964248657 66.88883209228516 -1.512876033782959
v 1.5190387964248657 82.97344207763672 -1.512876033782959
v 1.1500879526138306 66.88883209228516 -1.512876033782959
v 1.5190387964248657 0.10960999876260757 -1.5128720998764038
v 1.1500879526138306 31.089204788208008 -1.5128720998764038
v 1.5190387964248657 31.089204788208008 -1.5128720998764038
v -1.0679571628570557 31.089204788208008 -1.512876033782959
v -1.4387480020523071 0.10960999876260757 -1.5128720998764038
v -1.4387480020523071 31.089204788208008 -1.5128720998764038
v -1.0679571628570557 66.88883209228516 -1.5128798484802246
v -1.4387480020523071 31.089204788208008 -1.1327110528945923
v -1.0679571628570557 31.089204788208008 -1.512876033782959
v -1.0679571628570557 66.88883209228516 -1.5128798484802246
v 1.5190387964248657 82.97344207763672 -1.512876033782959
v 1.5190387964248657 66.88883209228516 -1.1344966888427734
v 1.5190387964248657 66.88883209228516 -1.512876033782959
v 1.5190387964248657 31.089204788208008 -1.1344966888427734
v 1.5190387964248657 0.10960999876260757 -1.5128720998764038
v 1.5190387964248657 31.089204788208008 -1.5128720998764038
v 1.5190387964248657 0.10960999876260757 1.444914698600769
v 1.519042730331421 31.089204788208008 1.0567303895950317
v 1.5190387964248657 31.089204788208008 1.444914698600769
v 1.1500879526138306 66.88883209228516 1.4449108839035034
v 1.519042730331421 66.88883209228516 1.0567265748977661
v 1.1500879526138306 31.089204788208008 1.444914698600769
v 1.1500879526138306 66.88883209228516 1.4449108839035034
v -1.4387480020523071 82.97344207763672 1.4449108839035034
v 1.5190387964248657 66.88883209228516 1.4449108839035034
v 1.5190387964248657 82.97344207763672 1.4449108839035034
v 1.5190387964248657 0.10960999876260757 1.444914698600769
v 1.5190387964248657 31.089204788208008 1.444914698600769
v -1.4387480020523071 0.10960999876260757 1.444914698600769
v -1.4387480020523071 31.089204788208008 1.444914698600769
v -1.0679571628570557 66.88883209228516 1.4449108839035034
v -1.4387480020523071 66.88883209228516 1.4449108839035034
v -1.4387480020523071 82.97344207763672 -1.512876033782959
v -1.4387480020523071 66.88883209228516 -1.512876033782959
v -1.4387480020523071 82.97344207763672 1.4449108839035034
v -1.4387480020523071 31.089204788208008 1.0585159063339233
v -1.4387480020523071 0.10960999876260757 1.444914698600769
v -1.4387480020523071 31.089204788208008 1.444914698600769
v -1.4387480020523071 0.10960999876260757 -1.5128720998764038
v -1.4387480020523071 66.88883209228516 1.4449108839035034
v -1.4387480020523071 31.089204788208008 -1.5128720998764038
v -1.4387480020523071 31.089204788208008 1.444914698600769
v -1.4387480020523071 66.88883209228516 1.4449108839035034
v -1.0679571628570557 31.089204788208008 1.444914698600769
v -1.4387480020523071 31.089204788208008 1.0585159063339233
vt 0 1
vt 1 0
vt 1 1
vt 1 1
vt 0 0
vt 1 0
vt 1 0
vt 0.49909600615501404 0.4953550100326538
vt 1 0.4953550100326538
vt 0 0.4953550100326538
vt 0.5009040236473083 0
vt 0 0
vt 0 0
vt 0.5009040236473083 1
vt 0.5009040236473083 0
vt 0.5046449899673462 0
vt 1 1
vt 1 0
vt 1 1.0049799680709839
vt 0.8746399879455566 0.8099039793014526
vt 1 0.8099039793014526
vt 0.4965969920158386 0.4976939857006073
vt 1 0
vt 0.4965969920158386 0
vt 1 0
vt 0.4965969920158386 1
vt 1 1
vt 0 0
vt 0.5034030079841614 0.4976939857006073
vt 0.5034030079841614 0
vt 0 1
vt 0.49769601225852966 0
vt 0 0
vt 0.13124099373817444 0.8099039793014526
vt 0 1.0049799680709839
vt 0 0.8099039793014526
vt 0.5009049773216248 0.4918060004711151
vt 0 1
vt 0.5009109973907471 1
vt 0.4990929961204529 0
vt 1 1
vt 1 0
vt 1 1
vt 0.49909600615501404 0.4918060004711151
vt 0.4990929961204529 1
vt 0 1
vt 0.5081899762153625 0
vt 0 0
vt 0.8752610087394714 0.8099039793014526
vt 0.12536099553108215 0.3757239878177643
vt 0.8752620220184326 0.3757239878177643
vt 0.12853099405765533 0.3757239878177643
vt 0.8693640232086182 0.8099039793014526
vt 0.12853099405765533 0.8099039793014526
vt 0.5034030079841614 1
vt 0 0.494145005941391
vt 0 1
vt 1 0.494145005941391
vt 0.4965969920158386 1
vt 1 1
vt 1 0
vt 0.49414798617362976 1
vt 1 1
vt 0.5034030079841614 1
vt 0 0
vt 0 1
vt 0 0
vt 0 1
vt 0.49909600615501404 0
vt 0.5009040236473083 0.4953550100326538
vt 0 1
vt 0.5046420097351074 1
vt 0 0.8099039793014526
vt 0 1.0049799680709839
vt 0.12474100291728973 0.8099039793014526
vt 0 0
vt 0.12473899871110916 0.3757239878177643
vt 0 0.3757239878177643
vt 0.8746399879455566 0.3757239878177643
vt 1 0
vt 1 0.3757239878177643
vt 1 0.4977009892463684
vt 0.4965969920158386 0
vt 0 0.49769699573516846
vt 0.4977009892463684 1
vt 1 1.0049799680709839
vt 0.8720740079879761 0.8099039793014526
vt 1 0.8099039793014526
vt 0.8720750212669373 0.3757239878177643
vt 1 0
vt 1 0.3757239878177643
vt 0 0
vt 0.13124099373817444 0.3757239878177643
vt 0 0.3757239878177643
vt 0 0.4918060004711151
vt 0.4990920126438141 1
vt 1 0.4918060004711151
vt 0.5081940293312073 1
vt 0 1.0049799680709839
vt 1 0.8099039793014526
vt 1 1.0049799680709839
vt 1 0
vt 1 0.3757239878177643
vt 0 0
vt 0 0.3757239878177643
vt 0.12535999715328217 0.8099039793014526
vt 0 0.8099039793014526
vt 0 1.0049799680709839
vt 0 0.8099039793014526
vt 1 1.0049799680709839
vt 0.8693640232086182 0.3757239878177643
vt 1 0
vt 1 0.3757239878177643
vt 0 0
vt 1 0.8099039793014526
vt 0 0.3757239878177643
vt 0.5034030079841614 0.494145005941391
vt 0.4965969920158386 0.494145005941391
vt 0.494145005941391 0
vt 0.5034030079841614 0
vn 0 -1 0
vn 0 -1 0
vn 0 -1 0
vn 0 1 0
vn 0 1 0
vn 0 1 0
vn 0 1 0
vn 0 1 0
vn 0 1 0
vn 0 -1 0
vn 0 -1 0
vn 0 -1 0
vn 0 0 -1
vn 0 0 -1
vn 0 0 -1
vn 1 0 0
vn 1 0 0
vn 1 0 0
vn 0 0 -1
vn 0 0 -1
vn -0.000014725699655395615 0 -0.999999999891577
vn 0 -1 0
vn 0 -1 0
vn 0 -1 0
vn 0 0 -1
vn 0 0 -1
vn 0 0 -1
vn 0 1 0
vn 0 1 0
vn 0 1 0
vn -1 0 0
vn -1 0 0
vn -1 0 0
vn 1 0 0
vn 1 0 0
vn 0.9999999999231572 0 0.000012397000317789738
vn 0 -1 0
vn 0 -1 0
vn 0 -1 0
vn 0 0 1
vn 0 0 1
vn 0 0 1
vn 0 1 0
vn 0 1 0
vn 0 1 0
vn 1 0 0
vn 1 0 0
vn 1 0 0
vn 0 0 1
vn 0 0 1
vn 0 0 1
vn -1 0 0
vn -1 0 0
vn -1 0 0
vn 0 1 0
vn 0 1 0
vn 0 1 0
vn 0 -1 0
vn 0 -1 0
vn 0 -1 0
vn -1 0 0
vn -1 0 0
vn -1 0 0
vn 0 0 1
vn 0 0 1
vn 0 0 1
vn 0 -1 0
vn 0 1 0
vn 0 1 0
vn 0 -1 0
vn 0 0 -1
vn 1 0 0
vn 0 0 -1
vn 0 0 -1
vn 0 0 -1
vn 0 0 -1
vn 0 0 -1
vn 0 0 -1
vn 0 0 -1
vn 0 0 -1
vn 0 0 -1
vn 0 -1 0
vn 0 0 -1
vn 0 1 0
vn -1 0 0
vn 1 0 0
vn 1 0 0
vn 1 0 0
vn 1 0 0
vn 1 0 0
vn 1 0 0
vn 1 0 0
vn 1 0 0
vn 1 0 0
vn 0 -1 0
vn 0 0 1
vn 0 1 0
vn 1 0 0
vn 0 0 1
vn 0 0 1
vn 0 0 1
vn 0 0 1
vn 0 0 1
vn 0 0 1
vn 0 0 1
vn 0 0 1
vn 0 0 1
vn -1 0 0
vn -1 0 0
vn -1 0 0
vn -1 0 0
vn -1 0 0
vn -1 0 0
vn -1 0 0
vn -1 0 0
vn -1 0 0
vn 0 1 0
vn 0 -1 0
vn -1 0 0
vn 0 0 1
f 1/1/1 2/2/2 3/3/3
f 4/4/4 5/5/5 6/6/6
f 7/7/7 8/8/8 9/9/9
f 10/10/10 11/11/11 12/12/12
f 13/13/13 14/14/14 15/15/15
f 16/16/16 17/17/17 18/18/18
f 19/19/19 20/20/20 21/21/21
f 22/22/22 23/23/23 24/24/24
f 25/25/25 26/26/26 27/27/27
f 28/28/28 29/29/29 30/30/30
f 31/31/31 32/32/32 33/33/33
f 34/34/34 35/35/35 36/36/36
f 37/37/37 38/38/38 39/39/39
f 40/40/40 41/41/41 42/42/42
f 43/43/43 44/44/44 45/45/45
f 46/46/46 47/47/47 48/48/48
f 49/49/49 50/50/50 51/51/51
f 52/52/52 53/53/53 54/54/54
f 55/55/55 56/56/56 57/57/57
f 58/58/58 59/59/59 60/60/60
f 61/61/61 62/62/62 63/63/63
f 64/64/64 65/65/65 66/66/66
f 2/2/2 1/1/1 67/67/67
f 5/5/5 4/4/4 68/68/68
f 8/8/8 7/7/7 69/69/69
f 11/11/11 10/10/10 70/70/70
f 14/14/14 13/13/13 71/71/71
f 17/17/17 16/16/16 72/72/72
f 73/73/73 19/19/19 74/74/74
f 75/75/75 19/19/19 73/73/73
f 76/76/76 77/77/77 78/78/78
f 79/79/79 80/80/80 81/81/81
f 79/79/79 76/76/76 80/80/80
f 79/79/79 77/77/77 76/76/76
f 79/79/79 75/75/75 77/77/77
f 20/20/20 75/75/75 79/79/79
f 20/20/20 19/19/19 75/75/75
f 23/23/23 22/22/22 82/82/82
f 26/26/26 25/25/25 83/83/83
f 29/29/29 28/28/28 84/84/84
f 32/32/32 31/31/31 85/85/85
f 86/86/86 87/87/87 88/88/88
f 35/35/35 87/87/87 86/86/86
f 89/89/89 90/90/90 91/91/91
f 92/92/92 93/93/93 94/94/94
f 90/90/90 93/93/93 92/92/92
f 89/89/89 93/93/93 90/90/90
f 87/87/87 93/93/93 89/89/89
f 87/87/87 34/34/34 93/93/93
f 35/35/35 34/34/34 87/87/87
f 38/38/38 37/37/37 95/95/95
f 41/41/41 40/40/40 96/96/96
f 44/44/44 43/43/43 97/97/97
f 47/47/47 46/46/46 98/98/98
f 99/99/99 100/100/100 101/101/101
f 99/99/99 49/49/49 100/100/100
f 51/51/51 102/102/102 103/103/103
f 104/104/104 50/50/50 105/105/105
f 102/102/102 50/50/50 104/104/104
f 51/51/51 50/50/50 102/102/102
f 106/106/106 99/99/99 107/107/107
f 106/106/106 49/49/49 99/99/99
f 50/50/50 49/49/49 106/106/106
f 54/54/54 108/108/108 109/109/109
f 54/54/54 110/110/110 108/108/108
f 111/111/111 112/112/112 113/113/113
f 111/111/111 114/114/114 112/112/112
f 110/110/110 53/53/53 115/115/115
f 54/54/54 53/53/53 110/110/110
f 114/114/114 52/52/52 116/116/116
f 111/111/111 52/52/52 114/114/114
f 53/53/53 52/52/52 111/111/111
f 56/56/56 55/55/55 117/117/117
f 59/59/59 58/58/58 118/118/118
f 62/62/62 61/61/61 119/119/119
f 65/65/65 64/64/64 120/120/120
